<mxfile host="app.diagrams.net" agent="Mozilla/5.0 (Windows NT 10.0; Win64; x64) AppleWebKit/537.36 (KHTML, like Gecko) Chrome/129.0.0.0 Safari/537.36" version="24.7.16">
  <diagram name="Page-1" id="w8cZCj89nIEEvSox4qSq">
    <mxGraphModel dx="1034" dy="412" grid="1" gridSize="10" guides="1" tooltips="1" connect="1" arrows="1" fold="1" page="1" pageScale="1" pageWidth="850" pageHeight="1100" math="0" shadow="0">
      <root>
        <mxCell id="0" />
        <mxCell id="1" parent="0" />
        <mxCell id="up9Ya0lri9I1QhaH2P3U-13" style="edgeStyle=orthogonalEdgeStyle;rounded=0;orthogonalLoop=1;jettySize=auto;html=1;exitX=0;exitY=0.3333333333333333;exitDx=0;exitDy=0;exitPerimeter=0;" edge="1" parent="1" source="up9Ya0lri9I1QhaH2P3U-1" target="up9Ya0lri9I1QhaH2P3U-5">
          <mxGeometry relative="1" as="geometry" />
        </mxCell>
        <mxCell id="up9Ya0lri9I1QhaH2P3U-14" style="edgeStyle=orthogonalEdgeStyle;rounded=0;orthogonalLoop=1;jettySize=auto;html=1;exitX=0;exitY=1;exitDx=0;exitDy=0;exitPerimeter=0;" edge="1" parent="1" source="up9Ya0lri9I1QhaH2P3U-1" target="up9Ya0lri9I1QhaH2P3U-8">
          <mxGeometry relative="1" as="geometry" />
        </mxCell>
        <mxCell id="up9Ya0lri9I1QhaH2P3U-1" value="System" style="shape=umlActor;verticalLabelPosition=bottom;verticalAlign=top;html=1;" vertex="1" parent="1">
          <mxGeometry x="720" y="200" width="30" height="60" as="geometry" />
        </mxCell>
        <mxCell id="up9Ya0lri9I1QhaH2P3U-23" style="edgeStyle=orthogonalEdgeStyle;rounded=0;orthogonalLoop=1;jettySize=auto;html=1;exitX=0.5;exitY=0.5;exitDx=0;exitDy=0;exitPerimeter=0;entryX=0;entryY=0.5;entryDx=0;entryDy=0;" edge="1" parent="1" source="up9Ya0lri9I1QhaH2P3U-2" target="up9Ya0lri9I1QhaH2P3U-24">
          <mxGeometry relative="1" as="geometry">
            <mxPoint x="270" y="754" as="targetPoint" />
          </mxGeometry>
        </mxCell>
        <mxCell id="up9Ya0lri9I1QhaH2P3U-2" value="Admin" style="shape=umlActor;verticalLabelPosition=bottom;verticalAlign=top;html=1;" vertex="1" parent="1">
          <mxGeometry x="120" y="210" width="30" height="60" as="geometry" />
        </mxCell>
        <mxCell id="up9Ya0lri9I1QhaH2P3U-11" style="edgeStyle=orthogonalEdgeStyle;rounded=0;orthogonalLoop=1;jettySize=auto;html=1;exitX=0.5;exitY=0.5;exitDx=0;exitDy=0;exitPerimeter=0;" edge="1" parent="1" source="up9Ya0lri9I1QhaH2P3U-3" target="up9Ya0lri9I1QhaH2P3U-9">
          <mxGeometry relative="1" as="geometry" />
        </mxCell>
        <mxCell id="up9Ya0lri9I1QhaH2P3U-12" style="edgeStyle=orthogonalEdgeStyle;rounded=0;orthogonalLoop=1;jettySize=auto;html=1;exitX=1;exitY=1;exitDx=0;exitDy=0;exitPerimeter=0;" edge="1" parent="1" source="up9Ya0lri9I1QhaH2P3U-3" target="up9Ya0lri9I1QhaH2P3U-4">
          <mxGeometry relative="1" as="geometry" />
        </mxCell>
        <mxCell id="up9Ya0lri9I1QhaH2P3U-3" value="Actor" style="shape=umlActor;verticalLabelPosition=bottom;verticalAlign=top;html=1;" vertex="1" parent="1">
          <mxGeometry x="130" y="70" width="30" height="60" as="geometry" />
        </mxCell>
        <mxCell id="up9Ya0lri9I1QhaH2P3U-4" value="Cancel Ticket" style="ellipse;whiteSpace=wrap;html=1;" vertex="1" parent="1">
          <mxGeometry x="310" y="110" width="140" height="70" as="geometry" />
        </mxCell>
        <mxCell id="up9Ya0lri9I1QhaH2P3U-5" value="List Events" style="ellipse;whiteSpace=wrap;html=1;" vertex="1" parent="1">
          <mxGeometry x="320" y="200" width="140" height="70" as="geometry" />
        </mxCell>
        <mxCell id="up9Ya0lri9I1QhaH2P3U-6" value="UPI/NetBanking/Credit" style="ellipse;whiteSpace=wrap;html=1;" vertex="1" parent="1">
          <mxGeometry x="330" y="540" width="140" height="70" as="geometry" />
        </mxCell>
        <mxCell id="up9Ya0lri9I1QhaH2P3U-21" style="edgeStyle=orthogonalEdgeStyle;rounded=0;orthogonalLoop=1;jettySize=auto;html=1;exitX=0.5;exitY=1;exitDx=0;exitDy=0;entryX=0.5;entryY=0;entryDx=0;entryDy=0;" edge="1" parent="1" source="up9Ya0lri9I1QhaH2P3U-7" target="up9Ya0lri9I1QhaH2P3U-6">
          <mxGeometry relative="1" as="geometry" />
        </mxCell>
        <mxCell id="up9Ya0lri9I1QhaH2P3U-22" value="&amp;lt;&amp;lt;include&amp;gt;&amp;gt;" style="edgeLabel;html=1;align=center;verticalAlign=middle;resizable=0;points=[];" vertex="1" connectable="0" parent="up9Ya0lri9I1QhaH2P3U-21">
          <mxGeometry x="0.2" y="3" relative="1" as="geometry">
            <mxPoint as="offset" />
          </mxGeometry>
        </mxCell>
        <mxCell id="up9Ya0lri9I1QhaH2P3U-7" value="Payment" style="ellipse;whiteSpace=wrap;html=1;" vertex="1" parent="1">
          <mxGeometry x="320" y="400" width="140" height="70" as="geometry" />
        </mxCell>
        <mxCell id="up9Ya0lri9I1QhaH2P3U-8" value="List Details&amp;nbsp;" style="ellipse;whiteSpace=wrap;html=1;" vertex="1" parent="1">
          <mxGeometry x="320" y="300" width="140" height="70" as="geometry" />
        </mxCell>
        <mxCell id="up9Ya0lri9I1QhaH2P3U-15" style="edgeStyle=orthogonalEdgeStyle;rounded=0;orthogonalLoop=1;jettySize=auto;html=1;exitX=1;exitY=0.5;exitDx=0;exitDy=0;entryX=1;entryY=0.5;entryDx=0;entryDy=0;" edge="1" parent="1" source="up9Ya0lri9I1QhaH2P3U-9" target="up9Ya0lri9I1QhaH2P3U-7">
          <mxGeometry relative="1" as="geometry">
            <mxPoint x="470" y="435.33331298828125" as="targetPoint" />
          </mxGeometry>
        </mxCell>
        <mxCell id="up9Ya0lri9I1QhaH2P3U-9" value="Book Ticket" style="ellipse;whiteSpace=wrap;html=1;" vertex="1" parent="1">
          <mxGeometry x="310" y="20" width="140" height="70" as="geometry" />
        </mxCell>
        <mxCell id="up9Ya0lri9I1QhaH2P3U-17" style="edgeStyle=orthogonalEdgeStyle;rounded=0;orthogonalLoop=1;jettySize=auto;html=1;exitX=0.5;exitY=0.5;exitDx=0;exitDy=0;exitPerimeter=0;entryX=0.005;entryY=0.61;entryDx=0;entryDy=0;entryPerimeter=0;" edge="1" parent="1" source="up9Ya0lri9I1QhaH2P3U-3" target="up9Ya0lri9I1QhaH2P3U-7">
          <mxGeometry relative="1" as="geometry" />
        </mxCell>
        <mxCell id="up9Ya0lri9I1QhaH2P3U-24" value="Authentication" style="ellipse;whiteSpace=wrap;html=1;" vertex="1" parent="1">
          <mxGeometry x="330" y="650" width="140" height="70" as="geometry" />
        </mxCell>
      </root>
    </mxGraphModel>
  </diagram>
</mxfile>
